<svg xmlns="http://www.w3.org/2000/svg" xmlns:xlink="http://www.w3.org/1999/xlink" width="500" zoomAndPan="magnify" viewBox="0 0 375 374.999991" height="500" preserveAspectRatio="xMidYMid meet" version="1.0"><defs><clipPath id="e258454f05"><path d="M 187.5 0 C 83.945312 0 0 83.945312 0 187.5 C 0 291.054688 83.945312 375 187.5 375 C 291.054688 375 375 291.054688 375 187.5 C 375 83.945312 291.054688 0 187.5 0 Z M 187.5 0 " clip-rule="nonzero"/></clipPath><clipPath id="864ab0b2dc"><path d="M 139.273438 37.421875 L 193.554688 37.421875 L 193.554688 143.007812 L 139.273438 143.007812 Z M 139.273438 37.421875 " clip-rule="nonzero"/></clipPath><clipPath id="addd9755f3"><path d="M 139.273438 55.550781 L 139.273438 143.007812 L 193.554688 124.925781 L 193.554688 37.46875 Z M 139.273438 55.550781 " clip-rule="nonzero"/></clipPath><clipPath id="999aacd8a9"><path d="M 139.273438 37.863281 L 193.953125 37.863281 L 193.953125 142.996094 L 139.273438 142.996094 Z M 139.273438 37.863281 " clip-rule="nonzero"/></clipPath><clipPath id="594eb02e8a"><path d="M 139.273438 55.585938 L 139.273438 142.996094 L 193.523438 124.921875 L 193.523438 37.515625 Z M 139.273438 55.585938 " clip-rule="nonzero"/></clipPath><clipPath id="35bd835cdf"><path d="M 37.5 111.425781 L 82.546875 111.425781 L 82.546875 226.328125 L 37.5 226.328125 Z M 37.5 111.425781 " clip-rule="nonzero"/></clipPath><clipPath id="2768e6e798"><path d="M 37.5 128.933594 L 37.5 226.328125 L 82.546875 208.882812 L 82.546875 111.488281 Z M 37.5 128.933594 " clip-rule="nonzero"/></clipPath><clipPath id="a3e8f0e60a"><path d="M 37.5 111 L 81.660156 111 L 81.660156 226.304688 L 37.5 226.304688 Z M 37.5 111 " clip-rule="nonzero"/></clipPath><clipPath id="21f17d3f51"><path d="M 37.5 128.972656 L 37.5 226.304688 L 82.515625 208.871094 L 82.515625 111.542969 Z M 37.5 128.972656 " clip-rule="nonzero"/></clipPath><clipPath id="543bcf9b9f"><path d="M 191.253906 37.496094 L 282.738281 37.496094 L 282.738281 337.691406 L 191.253906 337.691406 Z M 191.253906 37.496094 " clip-rule="nonzero"/></clipPath><clipPath id="66d44f9d23"><path d="M 282.738281 67.992188 L 282.738281 337.496094 L 191.253906 307 L 191.253906 37.496094 Z M 282.738281 67.992188 " clip-rule="nonzero"/></clipPath><clipPath id="ca529bd0f4"><path d="M 80.234375 111.515625 L 145.871094 111.515625 L 145.871094 291.507812 L 80.234375 291.507812 Z M 80.234375 111.515625 " clip-rule="nonzero"/></clipPath><clipPath id="f75fd5a420"><path d="M 145.871094 133.394531 L 145.871094 291.394531 L 80.234375 269.515625 L 80.234375 111.515625 Z M 145.871094 133.394531 " clip-rule="nonzero"/></clipPath></defs><g clip-path="url(#e258454f05)"><rect x="-37.5" width="450" fill="#4caf50" y="-37.499999" height="449.999989" fill-opacity="1"/></g><g clip-path="url(#864ab0b2dc)"><g clip-path="url(#addd9755f3)"><path fill="#4caf50" d="M 139.273438 143.007812 L 139.273438 37.421875 L 193.554688 37.421875 L 193.554688 143.007812 Z M 139.273438 143.007812 " fill-opacity="1" fill-rule="nonzero"/></g></g><g clip-path="url(#999aacd8a9)"><g clip-path="url(#594eb02e8a)"><path stroke-linecap="butt" transform="matrix(0, -2.102943, 2.102943, 0, 139.274731, 142.9965)" fill="none" stroke-linejoin="miter" d="M 41.565825 -0.000615259 L 0.000193281 -0.000615259 L 8.594919 25.796565 L 50.158693 25.796565 Z M 41.565825 -0.000615259 " stroke="#fdfcff" stroke-width="4.279717" stroke-opacity="1" stroke-miterlimit="4"/></g></g><g clip-path="url(#35bd835cdf)"><g clip-path="url(#2768e6e798)"><path fill="#4caf50" d="M 37.5 226.328125 L 37.5 111.425781 L 82.546875 111.425781 L 82.546875 226.328125 Z M 37.5 226.328125 " fill-opacity="1" fill-rule="nonzero"/></g></g><g clip-path="url(#a3e8f0e60a)"><g clip-path="url(#21f17d3f51)"><path stroke-linecap="butt" transform="matrix(0, -2.102943, 2.102943, 0, 37.500086, 226.303507)" fill="none" stroke-linejoin="miter" d="M 46.283166 -0.000041027 L -0.00056148 -0.000041027 L 8.289533 21.405974 L 54.571402 21.405974 Z M 46.283166 -0.000041027 " stroke="#ffffff" stroke-width="4.279717" stroke-opacity="1" stroke-miterlimit="4"/></g></g><g clip-path="url(#543bcf9b9f)"><g clip-path="url(#66d44f9d23)"><path fill="#fdfcff" d="M 282.738281 37.496094 L 282.738281 337.332031 L 191.253906 337.332031 L 191.253906 37.496094 Z M 282.738281 37.496094 " fill-opacity="1" fill-rule="nonzero"/></g></g><g clip-path="url(#ca529bd0f4)"><g clip-path="url(#f75fd5a420)"><path fill="#fdfcff" d="M 145.871094 111.515625 L 145.871094 291.507812 L 80.234375 291.507812 L 80.234375 111.515625 Z M 145.871094 111.515625 " fill-opacity="1" fill-rule="nonzero"/></g></g></svg>