<svg width="30" height="30" viewBox="0 0 30 30" fill="none" xmlns="http://www.w3.org/2000/svg">
<path d="M2.08331 7.08334H27.9166V22.9167H2.08331V7.08334Z" fill="#1E50A0"/>
<path d="M16.6667 12.0233V13.3333H20.9088L27.9167 9.03792V7.08334H24.7275L16.6667 12.0233Z" fill="white"/>
<path d="M27.9167 7.08334H26.3221L16.6667 13.0013V13.3333H18.1175L27.9167 7.3275V7.08334Z" fill="#D22F27"/>
<path d="M24.7279 22.9167H27.9167V20.9617L20.9092 16.6667H16.6667V17.9762L24.7279 22.9167Z" fill="white"/>
<path d="M27.9167 22.9167V21.9387L19.3146 16.6667H17.32L27.5175 22.9167H27.9167Z" fill="#D22F27"/>
<path d="M13.3333 17.9767V16.6667H9.09123L2.08331 20.9621V22.9167H5.27248L13.3333 17.9767Z" fill="white"/>
<path d="M2.08331 22.9167H3.6779L13.3333 16.9987V16.6667H11.8825L2.08331 22.6725V22.9167Z" fill="#D22F27"/>
<path d="M5.27206 7.08334H2.08331V9.03834L9.09081 13.3333H13.3333V12.0238L5.27206 7.08334Z" fill="white"/>
<path d="M2.08331 7.08334V8.06125L10.6858 13.3333H12.68L2.48248 7.08334H2.08331Z" fill="#D22F27"/>
<path d="M2.08331 12.9167H27.9166V17.0833H2.08331V12.9167Z" fill="white"/>
<path d="M12.9167 7.08334H17.0834V22.9167H12.9167V7.08334Z" fill="white"/>
<path d="M2.08331 13.75H27.9166V16.25H2.08331V13.75Z" fill="#D22F27"/>
<path d="M13.75 7.08334H16.25V22.9167H13.75V7.08334Z" fill="#D22F27"/>
<path d="M2.08331 7.08334H27.9166V22.9167H2.08331V7.08334Z" stroke="black" stroke-width="2" stroke-linecap="round" stroke-linejoin="round"/>
</svg>
